<svg xmlns="http://www.w3.org/2000/svg" xmlns:xlink="http://www.w3.org/1999/xlink" preserveAspectRatio="xMidYMid" width="18.063" height="18.281" viewBox="0 0 18.063 18.281">
  <defs>
    <style>
      .cls-1 {
        fill: #6d6e71;
        fill-rule: evenodd;
      }
    </style>
  </defs>
  <path d="M15.703,18.288 L2.246,18.288 C1.007,18.288 0.003,17.270 0.003,16.015 L0.003,2.382 C0.003,1.127 1.022,0.002 2.260,0.002 L15.807,0.002 C17.046,0.002 18.064,1.033 18.064,2.287 L18.064,16.002 C18.064,17.257 16.942,18.288 15.703,18.288 ZM16.936,2.287 C16.936,1.660 16.426,1.145 15.807,1.145 L2.260,1.145 C1.641,1.145 1.124,1.754 1.124,2.382 L1.124,16.015 C1.124,16.643 1.626,17.152 2.246,17.152 L15.703,17.152 C16.323,17.152 16.936,16.629 16.936,16.002 L16.936,2.287 ZM13.549,12.573 L4.518,12.573 C4.206,12.573 3.954,12.317 3.954,12.002 C3.954,11.686 4.206,11.431 4.518,11.431 L13.549,11.431 C13.861,11.431 14.113,11.686 14.113,12.002 C14.113,12.317 13.861,12.573 13.549,12.573 ZM13.549,9.145 L4.518,9.145 C4.206,9.145 3.954,8.889 3.954,8.574 C3.954,8.258 4.206,8.002 4.518,8.002 L13.549,8.002 C13.861,8.002 14.113,8.258 14.113,8.574 C14.113,8.889 13.861,9.145 13.549,9.145 ZM13.549,5.716 L4.518,5.716 C4.206,5.716 3.954,5.460 3.954,5.145 C3.954,4.829 4.206,4.573 4.518,4.573 L13.549,4.573 C13.861,4.573 14.113,4.829 14.113,5.145 C14.113,5.460 13.861,5.716 13.549,5.716 Z" class="cls-1"/>
</svg>
