<svg xmlns="http://www.w3.org/2000/svg" xmlns:xlink="http://www.w3.org/1999/xlink" preserveAspectRatio="xMidYMid" width="32" height="26" viewBox="0 0 32 26">
  <defs>
    <style>
      .cls-1 {
        fill: #6b6f71;
        fill-rule: evenodd;
      }
    </style>
  </defs>
  <path d="M28.000,26.000 L4.000,26.000 C1.791,26.000 0.000,24.209 0.000,22.000 L0.000,4.000 C0.000,1.791 1.791,0.000 4.000,0.000 L28.000,0.000 C30.209,0.000 32.000,1.791 32.000,4.000 L32.000,22.000 C32.000,24.209 30.209,26.000 28.000,26.000 ZM30.000,4.000 C30.000,2.896 29.105,2.000 28.000,2.000 L4.000,2.000 C2.896,2.000 2.000,2.896 2.000,4.000 L2.000,22.000 C2.000,23.105 2.896,24.000 4.000,24.000 L28.000,24.000 C29.105,24.000 30.000,23.105 30.000,22.000 L30.000,4.000 ZM26.000,13.000 L22.000,13.000 C20.895,13.000 20.000,12.105 20.000,11.000 L20.000,7.000 C20.000,5.896 20.895,5.000 22.000,5.000 L26.000,5.000 C27.105,5.000 28.000,5.896 28.000,7.000 L28.000,11.000 C28.000,12.105 27.105,13.000 26.000,13.000 ZM26.000,8.000 C26.000,7.448 25.552,7.000 25.000,7.000 L23.000,7.000 C22.448,7.000 22.000,7.448 22.000,8.000 L22.000,10.000 C22.000,10.553 22.448,11.000 23.000,11.000 L25.000,11.000 C25.552,11.000 26.000,10.553 26.000,10.000 L26.000,8.000 ZM17.000,21.000 L5.000,21.000 C4.448,21.000 4.000,20.552 4.000,20.000 C4.000,19.448 4.448,19.000 5.000,19.000 L17.000,19.000 C17.552,19.000 18.000,19.448 18.000,20.000 C18.000,20.552 17.552,21.000 17.000,21.000 ZM17.000,17.000 L5.000,17.000 C4.448,17.000 4.000,16.552 4.000,16.000 C4.000,15.448 4.448,15.000 5.000,15.000 L17.000,15.000 C17.552,15.000 18.000,15.448 18.000,16.000 C18.000,16.552 17.552,17.000 17.000,17.000 Z" class="cls-1"/>
</svg>
