<svg xmlns="http://www.w3.org/2000/svg" xmlns:xlink="http://www.w3.org/1999/xlink" preserveAspectRatio="xMidYMid" width="23.747" height="23.999" viewBox="0 0 20.78 21">
  <defs>
    <style>
      .cls-1 {
        fill: #2b75b2;
        fill-rule: evenodd;
      }
    </style>
  </defs>
  <path d="M19.194,21.003 L1.606,21.003 C0.721,21.003 0.004,20.346 0.004,19.452 L0.004,1.616 C0.004,0.723 0.721,-0.002 1.606,-0.002 L19.194,-0.002 C20.079,-0.002 20.796,0.723 20.796,1.616 L20.796,19.452 C20.796,20.346 20.079,21.003 19.194,21.003 ZM8.863,4.051 C7.914,4.051 6.994,4.205 6.373,4.510 C5.753,4.816 5.305,5.358 5.074,5.845 C4.843,6.332 4.727,6.924 4.727,7.912 L4.727,8.850 L3.172,8.850 L3.172,11.309 L4.727,11.309 L4.727,19.477 L8.052,19.477 L8.052,11.309 L10.126,11.309 L10.700,8.850 L8.052,8.850 L8.052,7.967 C8.052,7.370 8.160,6.966 8.375,6.756 C8.590,6.546 9.016,6.420 9.511,6.420 C10.014,6.420 10.417,6.657 10.925,6.956 L11.531,4.643 C10.598,4.377 9.837,4.051 8.863,4.051 Z" class="cls-1"/>
</svg>
