<svg xmlns="http://www.w3.org/2000/svg" xmlns:xlink="http://www.w3.org/1999/xlink" preserveAspectRatio="xMidYMid" width="24" height="24" viewBox="0 0 24 24">
  <defs>
    <style>
      .cls-1 {
        fill: #dd4070;
        fill-rule: evenodd;
      }
    </style>
  </defs>
  <path d="M19.754,5.107 L19.754,8.717 L18.291,8.717 L18.291,5.107 L14.635,5.107 L14.635,3.631 L18.291,3.631 L18.291,0.021 L19.754,0.021 L19.754,3.631 L23.410,3.631 L23.410,5.107 L19.754,5.107 ZM9.641,1.452 C10.939,2.178 11.699,3.358 11.699,4.901 C11.699,6.197 10.908,7.218 9.888,8.010 C8.892,8.783 8.703,9.107 8.703,9.765 C8.703,10.325 9.770,11.280 10.327,11.672 C11.958,12.818 12.440,13.881 12.440,15.657 C12.440,17.872 10.327,20.346 6.421,20.346 C2.993,20.346 0.010,18.687 0.010,16.472 C0.010,14.223 2.739,12.053 6.166,12.053 C6.540,12.053 6.882,12.038 7.236,12.038 C6.767,11.585 6.396,11.020 6.396,10.335 C6.396,9.929 6.527,9.521 6.709,9.173 C6.523,9.186 6.333,9.156 6.137,9.156 C3.322,9.156 1.436,7.098 1.436,4.632 C1.436,2.219 4.040,-0.001 6.808,-0.001 C8.350,-0.001 12.979,-0.001 12.979,-0.001 L11.598,1.452 L9.641,1.452 ZM6.819,12.627 C4.450,12.602 2.328,14.062 2.328,15.816 C2.328,17.606 4.039,18.914 6.408,18.914 C9.738,18.914 10.899,17.697 10.899,15.908 C10.899,15.692 10.872,15.481 10.823,15.275 C10.563,14.262 9.641,13.761 8.354,12.872 C7.887,12.721 7.372,12.633 6.819,12.627 ZM9.481,4.928 C9.206,2.855 7.626,1.189 6.036,1.142 C4.446,1.095 3.380,2.683 3.655,4.758 C3.929,6.832 5.440,8.553 7.030,8.599 C8.619,8.647 9.755,7.004 9.481,4.928 Z" transform="translate(0.29 1.83)" class="cls-1"/>
</svg>
