<svg xmlns="http://www.w3.org/2000/svg" xmlns:xlink="http://www.w3.org/1999/xlink" preserveAspectRatio="xMidYMid" width="21.53" height="21" viewBox="0 0 21.53 21">
  <defs>
    <style>
      .cls-1 {
        fill: #cdcdcd;
        fill-rule: evenodd;
      }
    </style>
  </defs>
  <path d="M19.872,21.002 L1.663,21.002 C0.747,21.002 0.004,20.345 0.004,19.451 L0.004,1.616 C0.004,0.723 0.747,-0.002 1.663,-0.002 L19.872,-0.002 C20.788,-0.002 21.530,0.723 21.530,1.616 L21.530,19.451 C21.530,20.345 20.788,21.002 19.872,21.002 ZM9.176,4.051 C8.194,4.051 7.241,4.204 6.599,4.510 C5.956,4.816 5.493,5.358 5.253,5.844 C5.014,6.331 4.894,6.924 4.894,7.912 L4.894,8.850 L3.284,8.850 L3.284,11.309 L4.894,11.309 L4.894,19.477 L8.337,19.477 L8.337,11.309 L10.484,11.309 L11.078,8.850 L8.337,8.850 L8.337,7.967 C8.337,7.370 8.448,6.966 8.670,6.756 C8.893,6.546 9.335,6.420 9.847,6.420 C10.368,6.420 10.785,6.657 11.311,6.956 L11.938,4.642 C10.972,4.377 10.184,4.051 9.176,4.051 Z" class="cls-1"/>
</svg>
