<svg xmlns="http://www.w3.org/2000/svg" xmlns:xlink="http://www.w3.org/1999/xlink" preserveAspectRatio="xMidYMid" width="21.53" height="21" viewBox="0 0 21.53 21">
  <defs>
    <style>
      .cls-1 {
        fill: #cdcdcd;
        fill-rule: evenodd;
      }
    </style>
  </defs>
  <path d="M18.826,21.000 L2.675,21.000 C1.189,21.000 -0.016,19.825 -0.016,18.375 L-0.016,2.625 C-0.016,1.175 1.189,0.000 2.675,0.000 L18.826,0.000 C20.313,0.000 21.518,1.175 21.518,2.625 L21.518,18.375 C21.518,19.825 20.313,21.000 18.826,21.000 ZM10.751,6.432 C9.072,6.432 7.629,7.400 6.967,8.794 L6.963,8.794 C6.956,8.809 6.952,8.824 6.945,8.839 C6.905,8.925 6.870,9.013 6.837,9.103 C6.821,9.145 6.803,9.187 6.789,9.230 C6.758,9.321 6.733,9.415 6.709,9.509 C6.697,9.553 6.684,9.596 6.674,9.640 C6.652,9.739 6.637,9.841 6.622,9.942 C6.617,9.983 6.608,10.023 6.603,10.065 C6.587,10.208 6.579,10.353 6.579,10.500 C6.579,12.747 8.447,14.569 10.751,14.569 C13.055,14.569 14.923,12.747 14.923,10.500 C14.923,10.353 14.914,10.208 14.899,10.065 C14.894,10.023 14.885,9.983 14.879,9.942 C14.865,9.841 14.850,9.739 14.828,9.640 C14.818,9.596 14.805,9.553 14.793,9.509 C14.769,9.415 14.744,9.321 14.713,9.230 C14.698,9.187 14.681,9.145 14.665,9.103 C14.632,9.013 14.597,8.925 14.557,8.839 C14.550,8.824 14.546,8.809 14.539,8.794 L14.535,8.794 C13.873,7.400 12.430,6.432 10.751,6.432 ZM19.096,3.413 C19.096,2.833 18.614,2.363 18.019,2.363 L15.865,2.363 C15.271,2.363 14.789,2.833 14.789,3.413 L14.789,5.513 C14.789,6.093 15.271,6.563 15.865,6.563 L18.019,6.563 C18.614,6.563 19.096,6.093 19.096,5.513 L19.096,3.413 ZM19.096,8.794 L17.111,8.794 C17.264,9.337 17.346,9.909 17.346,10.500 C17.346,14.052 14.393,16.931 10.751,16.931 C7.109,16.931 4.156,14.052 4.156,10.500 C4.156,9.909 4.238,9.337 4.391,8.794 L2.406,8.794 L2.406,17.588 C2.406,18.168 2.888,18.637 3.483,18.637 L18.019,18.637 C18.614,18.637 19.096,18.168 19.096,17.588 L19.096,8.794 Z" class="cls-1"/>
</svg>
