<svg xmlns="http://www.w3.org/2000/svg" xmlns:xlink="http://www.w3.org/1999/xlink" preserveAspectRatio="xMidYMid" width="22.406" height="21" viewBox="0 0 22.406 21">
  <defs>
    <style>
      .cls-1 {
        fill: #cdcdcd;
        fill-rule: evenodd;
      }
    </style>
  </defs>
  <path d="M17.419,20.996 L17.419,13.358 C17.419,11.793 16.958,10.225 15.084,10.225 C13.210,10.225 12.426,11.793 12.426,13.397 L12.426,20.996 L7.425,20.996 L7.425,7.012 L12.426,7.012 L12.426,8.895 C13.742,7.250 14.885,6.571 16.958,6.571 C19.033,6.571 22.406,7.524 22.406,13.046 L22.406,20.996 L17.419,20.996 ZM2.803,4.939 C1.260,4.939 0.010,3.836 0.010,2.473 C0.010,1.109 1.260,0.005 2.803,0.005 C4.345,0.005 5.595,1.109 5.595,2.473 C5.595,3.836 4.345,4.939 2.803,4.939 ZM5.298,20.996 L0.289,20.996 L0.289,7.012 L5.298,7.012 L5.298,20.996 Z" class="cls-1"/>
</svg>
