<svg xmlns="http://www.w3.org/2000/svg" xmlns:xlink="http://www.w3.org/1999/xlink" preserveAspectRatio="xMidYMid" width="21.53" height="16.78" viewBox="0 0 21.53 16.78">
  <defs>
    <style>
      .cls-1 {
        fill: #cdcdcd;
        fill-rule: evenodd;
      }
    </style>
  </defs>
  <path d="M14.659,-0.009 C16.371,-0.038 17.281,0.561 18.151,1.324 C18.890,1.263 19.849,0.866 20.415,0.590 C20.598,0.494 20.781,0.397 20.964,0.301 C20.642,1.140 20.204,1.796 19.531,2.295 C19.382,2.405 19.233,2.555 19.046,2.625 C19.046,2.629 19.046,2.632 19.046,2.636 C20.005,2.626 20.795,2.211 21.547,1.985 C21.547,1.989 21.547,1.992 21.547,1.995 C21.152,2.598 20.618,3.209 20.048,3.648 C19.818,3.823 19.588,3.999 19.359,4.175 C19.371,5.151 19.344,6.082 19.154,6.902 C18.050,11.669 15.127,14.906 10.499,16.292 C8.837,16.790 6.152,16.995 4.248,16.540 C3.303,16.315 2.451,16.060 1.650,15.724 C1.206,15.537 0.794,15.335 0.400,15.105 C0.271,15.029 0.141,14.953 0.012,14.877 C0.441,14.889 0.944,15.003 1.424,14.929 C1.858,14.861 2.284,14.879 2.685,14.794 C3.684,14.584 4.572,14.305 5.336,13.875 C5.707,13.667 6.269,13.421 6.533,13.121 C6.036,13.130 5.586,13.019 5.218,12.894 C3.788,12.408 2.957,11.517 2.415,10.177 C2.848,10.222 4.096,10.331 4.388,10.094 C3.843,10.065 3.318,9.762 2.943,9.536 C1.794,8.845 0.856,7.685 0.863,5.900 C1.014,5.969 1.165,6.038 1.316,6.107 C1.605,6.224 1.898,6.286 2.243,6.355 C2.388,6.384 2.679,6.466 2.846,6.406 C2.839,6.406 2.832,6.406 2.825,6.406 C2.602,6.157 2.240,5.991 2.017,5.724 C1.279,4.843 0.588,3.487 1.025,1.871 C1.136,1.462 1.312,1.100 1.499,0.766 C1.506,0.769 1.514,0.773 1.521,0.776 C1.607,0.949 1.798,1.076 1.920,1.221 C2.296,1.669 2.761,2.073 3.234,2.429 C4.848,3.642 6.301,4.387 8.634,4.939 C9.226,5.079 9.910,5.186 10.617,5.187 C10.419,4.631 10.483,3.732 10.639,3.194 C11.032,1.840 11.886,0.865 13.140,0.342 C13.439,0.217 13.772,0.126 14.120,0.053 C14.300,0.032 14.480,0.012 14.659,-0.009 Z" class="cls-1"/>
</svg>
