<svg xmlns="http://www.w3.org/2000/svg" xmlns:xlink="http://www.w3.org/1999/xlink" preserveAspectRatio="xMidYMid" width="32" height="27.97" viewBox="0 0 32 27.97">
  <defs>
    <style>
      .cls-1 {
        fill: #adff63;
        fill-rule: evenodd;
      }
    </style>
  </defs>
  <path d="M29.196,16.165 C29.075,16.285 18.143,27.090 18.143,27.090 C16.960,28.259 15.048,28.259 13.865,27.090 C13.865,27.090 3.881,17.222 2.812,16.165 C-0.929,12.466 -0.929,6.470 2.812,2.772 C6.443,-0.818 12.244,-0.893 16.004,2.484 C19.764,-0.893 25.566,-0.818 29.196,2.772 C32.937,6.470 32.937,12.466 29.196,16.165 ZM27.769,4.181 C24.926,1.370 20.353,1.271 17.360,3.959 L16.004,5.177 L14.648,3.959 C11.655,1.271 7.083,1.370 4.239,4.181 C1.289,7.096 1.289,11.840 4.239,14.755 L15.291,25.680 C15.683,26.069 16.324,26.069 16.716,25.680 L27.769,14.755 C30.719,11.840 30.719,7.096 27.769,4.181 ZM9.255,6.003 L9.254,6.003 C7.461,6.003 6.005,7.456 6.005,9.247 L6.005,9.248 C6.005,9.524 5.782,9.747 5.505,9.747 C5.229,9.747 5.005,9.524 5.005,9.248 C5.005,6.906 6.907,5.007 9.251,5.006 C9.253,5.006 9.253,5.005 9.255,5.005 C9.532,5.005 9.755,5.228 9.755,5.504 C9.755,5.780 9.532,6.003 9.255,6.003 Z" class="cls-1"/>
</svg>
