<svg xmlns="http://www.w3.org/2000/svg" xmlns:xlink="http://www.w3.org/1999/xlink" preserveAspectRatio="xMidYMid" width="34" height="34" viewBox="0 0 34 34">
  <defs>
    <style>
      .cls-1 {
        fill: #1faae2;
        fill-rule: evenodd;
      }
    </style>
  </defs>
  <path d="M12.490,33.995 C10.416,34.006 0.013,18.078 0.013,12.748 C0.013,5.708 5.599,0.001 12.490,0.001 C19.381,0.001 24.968,5.708 24.968,12.748 C24.968,18.007 14.532,34.006 12.490,33.995 ZM12.490,2.125 C6.748,2.125 2.093,6.881 2.093,12.748 C2.093,17.190 10.762,30.817 12.490,30.808 C14.192,30.817 22.888,17.130 22.888,12.748 C22.888,6.881 18.233,2.125 12.490,2.125 ZM12.490,18.060 C9.619,18.060 7.291,15.682 7.291,12.748 C7.291,9.815 9.619,7.437 12.490,7.437 C15.362,7.437 17.689,9.815 17.689,12.748 C17.689,15.682 15.362,18.060 12.490,18.060 ZM12.490,9.561 C10.768,9.561 9.371,10.988 9.371,12.748 C9.371,14.508 10.768,15.935 12.490,15.935 C14.213,15.935 15.610,14.508 15.610,12.748 C15.610,10.988 14.213,9.561 12.490,9.561 Z" transform="translate(4.51)" class="cls-1"/>
</svg>
