<svg xmlns="http://www.w3.org/2000/svg" xmlns:xlink="http://www.w3.org/1999/xlink" preserveAspectRatio="xMidYMid" width="34" height="34" viewBox="0 0 34 34">
  <defs>
    <style>
      .cls-1 {
        fill: #1faae2;
        fill-rule: evenodd;
      }
    </style>
  </defs>
  <path d="M25.670,23.646 L3.651,23.646 C1.625,23.646 -0.018,22.017 -0.018,20.008 L-0.018,3.636 C-0.018,1.626 1.625,-0.002 3.651,-0.002 L25.670,-0.002 C27.697,-0.002 29.340,1.626 29.340,3.636 L29.340,20.008 C29.340,22.017 27.697,23.646 25.670,23.646 ZM4.569,1.817 L14.661,10.514 L24.753,1.817 L4.569,1.817 ZM27.505,3.636 C27.505,3.113 27.279,2.644 26.922,2.312 L14.661,12.732 L2.400,2.312 C2.043,2.644 1.817,3.113 1.817,3.636 L1.817,20.008 C1.817,21.013 2.638,21.827 3.651,21.827 L25.670,21.827 C26.684,21.827 27.505,21.013 27.505,20.008 L27.505,3.636 Z" transform="translate(2.33 5.17)" class="cls-1"/>
</svg>
