<svg xmlns="http://www.w3.org/2000/svg" xmlns:xlink="http://www.w3.org/1999/xlink" preserveAspectRatio="xMidYMid" width="23.793" height="23.999" viewBox="0 0 20.82 21">
  <defs>
    <style>
      .cls-1 {
        fill: #26658e;
        fill-rule: evenodd;
      }
    </style>
  </defs>
  <path d="M18.210,21.000 L2.610,21.000 C1.174,21.000 0.010,19.825 0.010,18.375 L0.010,2.625 C0.010,1.175 1.174,0.000 2.610,0.000 L18.210,0.000 C19.646,0.000 20.810,1.175 20.810,2.625 L20.810,18.375 C20.810,19.825 19.646,21.000 18.210,21.000 ZM10.410,6.431 C8.789,6.431 7.395,7.400 6.755,8.794 L6.752,8.794 C6.745,8.809 6.740,8.824 6.734,8.839 C6.696,8.925 6.662,9.013 6.629,9.103 C6.614,9.145 6.597,9.187 6.583,9.230 C6.553,9.321 6.529,9.415 6.506,9.509 C6.495,9.553 6.482,9.596 6.472,9.640 C6.451,9.740 6.436,9.840 6.422,9.942 C6.417,9.983 6.408,10.023 6.404,10.065 C6.389,10.208 6.380,10.353 6.380,10.500 C6.380,12.747 8.184,14.569 10.410,14.569 C12.636,14.569 14.440,12.747 14.440,10.500 C14.440,10.353 14.431,10.208 14.416,10.065 C14.412,10.023 14.403,9.983 14.398,9.942 C14.384,9.840 14.369,9.740 14.348,9.640 C14.338,9.596 14.325,9.553 14.314,9.509 C14.291,9.415 14.267,9.321 14.237,9.230 C14.223,9.187 14.206,9.145 14.191,9.103 C14.158,9.013 14.125,8.925 14.086,8.839 C14.080,8.824 14.075,8.809 14.069,8.794 L14.065,8.794 C13.425,7.400 12.031,6.431 10.410,6.431 ZM18.470,3.413 C18.470,2.833 18.004,2.363 17.430,2.363 L15.350,2.363 C14.776,2.363 14.310,2.833 14.310,3.413 L14.310,5.513 C14.310,6.093 14.776,6.563 15.350,6.563 L17.430,6.563 C18.004,6.563 18.470,6.093 18.470,5.513 L18.470,3.413 ZM18.470,8.794 L16.553,8.794 C16.701,9.338 16.780,9.910 16.780,10.500 C16.780,14.052 13.928,16.932 10.410,16.932 C6.892,16.932 4.040,14.052 4.040,10.500 C4.040,9.910 4.119,9.338 4.267,8.794 L2.350,8.794 L2.350,17.588 C2.350,18.168 2.816,18.638 3.390,18.638 L17.430,18.638 C18.004,18.638 18.470,18.168 18.470,17.588 L18.470,8.794 Z" class="cls-1"/>
</svg>
