<svg xmlns="http://www.w3.org/2000/svg" xmlns:xlink="http://www.w3.org/1999/xlink" preserveAspectRatio="xMidYMid" width="18.062" height="21.031" viewBox="0 0 18.062 21.031">
  <defs>
    <style>
      .cls-1 {
        fill: #6d6e71;
        fill-rule: evenodd;
      }
    </style>
  </defs>
  <path d="M15.495,21.038 L2.594,21.038 C1.169,21.038 0.013,19.861 0.013,18.409 L0.013,5.266 C0.013,3.814 1.169,2.637 2.594,2.637 L4.529,2.637 L4.529,1.323 L6.266,1.323 C6.825,0.541 7.853,0.009 9.044,0.009 C10.235,0.009 11.263,0.541 11.822,1.323 L13.560,1.323 L13.560,2.637 L15.495,2.637 C16.920,2.637 18.075,3.814 18.075,5.266 L18.075,18.409 C18.075,19.861 16.920,21.038 15.495,21.038 ZM12.270,2.637 L10.836,2.637 C10.836,1.912 10.034,1.323 9.044,1.323 C8.055,1.323 7.252,1.912 7.252,2.637 L5.819,2.637 L5.819,5.266 L12.270,5.266 L12.270,2.637 ZM16.785,5.266 C16.785,4.540 16.207,3.952 15.495,3.952 L13.560,3.952 L13.560,6.580 L4.529,6.580 L4.529,3.952 L2.594,3.952 C1.881,3.952 1.304,4.540 1.304,5.266 L1.304,18.409 C1.304,19.135 1.881,19.723 2.594,19.723 L15.495,19.723 C16.207,19.723 16.785,19.135 16.785,18.409 L16.785,5.266 ZM13.560,17.095 L4.529,17.095 C4.173,17.095 3.884,16.801 3.884,16.438 C3.884,16.075 4.173,15.781 4.529,15.781 L13.560,15.781 C13.916,15.781 14.205,16.075 14.205,16.438 C14.205,16.801 13.916,17.095 13.560,17.095 ZM13.560,13.809 L4.529,13.809 C4.173,13.809 3.884,13.515 3.884,13.152 C3.884,12.789 4.173,12.495 4.529,12.495 L13.560,12.495 C13.916,12.495 14.205,12.789 14.205,13.152 C14.205,13.515 13.916,13.809 13.560,13.809 ZM13.560,10.524 L4.529,10.524 C4.173,10.524 3.884,10.229 3.884,9.866 C3.884,9.503 4.173,9.209 4.529,9.209 L13.560,9.209 C13.916,9.209 14.205,9.503 14.205,9.866 C14.205,10.229 13.916,10.524 13.560,10.524 Z" class="cls-1"/>
</svg>
