<svg xmlns="http://www.w3.org/2000/svg" xmlns:xlink="http://www.w3.org/1999/xlink" preserveAspectRatio="xMidYMid" width="18.062" height="18.281" viewBox="0 0 18.062 18.281">
  <defs>
    <style>
      .cls-1 {
        fill: #6d6e71;
        fill-rule: evenodd;
      }
    </style>
  </defs>
  <path d="M9.035,18.288 C4.047,18.288 0.004,14.194 0.004,9.145 C0.004,4.095 4.047,0.002 9.035,0.002 C14.022,0.002 18.065,4.095 18.065,9.145 C18.065,14.194 14.022,18.288 9.035,18.288 ZM15.580,13.619 C16.336,12.490 16.814,11.157 16.915,9.716 L12.397,9.716 C12.368,10.778 12.280,11.816 12.114,12.806 C13.336,12.982 14.499,13.255 15.580,13.619 ZM6.803,9.716 C6.833,10.722 6.923,11.712 7.094,12.663 C7.729,12.606 8.375,12.573 9.035,12.573 C9.694,12.573 10.340,12.606 10.975,12.663 C11.146,11.712 11.236,10.722 11.266,9.716 L6.803,9.716 ZM11.266,8.574 C11.236,7.567 11.146,6.577 10.975,5.627 C10.340,5.683 9.694,5.716 9.035,5.716 C8.375,5.716 7.729,5.683 7.094,5.627 C6.923,6.577 6.833,7.567 6.803,8.574 L11.266,8.574 ZM14.802,14.604 C13.881,14.309 12.907,14.084 11.893,13.933 C11.656,14.980 11.349,15.974 10.973,16.892 C12.462,16.511 13.784,15.703 14.802,14.604 ZM8.487,17.117 C8.668,17.129 8.850,17.145 9.035,17.145 C9.220,17.145 9.401,17.129 9.582,17.117 C10.063,16.104 10.452,14.977 10.740,13.781 C10.179,13.732 9.610,13.702 9.035,13.702 C8.459,13.702 7.890,13.732 7.329,13.781 C7.617,14.977 8.006,16.104 8.487,17.117 ZM7.096,16.892 C6.720,15.974 6.413,14.980 6.176,13.933 C5.162,14.084 4.188,14.309 3.267,14.604 C4.285,15.703 5.607,16.511 7.096,16.892 ZM5.955,12.806 C5.789,11.816 5.701,10.778 5.672,9.716 L1.154,9.716 C1.255,11.157 1.733,12.490 2.490,13.619 C3.570,13.255 4.733,12.982 5.955,12.806 ZM2.490,4.671 C1.733,5.799 1.255,7.133 1.154,8.574 L5.672,8.574 C5.701,7.511 5.789,6.473 5.955,5.483 C4.733,5.308 3.570,5.035 2.490,4.671 ZM3.267,3.686 C4.188,3.980 5.162,4.206 6.176,4.357 C6.413,3.310 6.720,2.316 7.096,1.397 C5.607,1.778 4.285,2.587 3.267,3.686 ZM9.582,1.173 C9.401,1.160 9.220,1.145 9.035,1.145 C8.850,1.145 8.668,1.160 8.487,1.173 C8.006,2.186 7.617,3.313 7.329,4.508 C7.890,4.558 8.459,4.587 9.035,4.587 C9.610,4.587 10.179,4.558 10.740,4.508 C10.452,3.313 10.063,2.186 9.582,1.173 ZM10.973,1.397 C11.349,2.316 11.656,3.310 11.893,4.357 C12.908,4.206 13.881,3.980 14.802,3.686 C13.784,2.587 12.462,1.778 10.973,1.397 ZM12.114,5.483 C12.280,6.473 12.368,7.511 12.397,8.574 L16.915,8.574 C16.814,7.133 16.336,5.799 15.580,4.671 C14.499,5.035 13.336,5.308 12.114,5.483 Z" class="cls-1"/>
</svg>
