<svg xmlns="http://www.w3.org/2000/svg" xmlns:xlink="http://www.w3.org/1999/xlink" preserveAspectRatio="xMidYMid" width="22.97" height="23" viewBox="0 0 22.97 23">
  <defs>
    <style>
      .cls-1 {
        fill: #c7c9ce;
        fill-rule: evenodd;
      }
    </style>
  </defs>
  <path d="M21.644,7.741 L18.442,10.947 C17.252,12.140 15.564,12.526 14.048,12.113 L16.721,9.442 C16.760,9.408 16.804,9.381 16.841,9.344 L20.043,6.137 C20.927,5.252 20.927,3.816 20.043,2.930 C19.159,2.045 17.725,2.045 16.841,2.930 L13.639,6.137 C13.639,6.138 13.639,6.138 13.639,6.138 L13.636,6.136 L10.867,8.903 C10.469,7.392 10.856,5.718 12.038,4.534 L15.240,1.327 C17.009,-0.444 19.876,-0.444 21.644,1.327 C23.413,3.098 23.413,5.969 21.644,7.741 ZM8.475,16.159 L8.472,16.155 C8.263,16.367 7.974,16.499 7.653,16.499 C7.017,16.499 6.502,15.984 6.502,15.349 C6.502,15.017 6.646,14.720 6.872,14.510 L14.483,6.907 C14.693,6.681 14.990,6.537 15.323,6.537 C15.959,6.537 16.474,7.052 16.474,7.687 C16.474,8.001 16.347,8.286 16.142,8.493 L16.146,8.496 L8.475,16.159 ZM6.102,13.658 L2.900,16.865 C2.016,17.751 2.016,19.186 2.900,20.072 C3.784,20.957 5.218,20.957 6.102,20.072 L9.304,16.865 C9.327,16.842 9.342,16.816 9.364,16.792 L12.073,14.085 C12.478,15.599 12.091,17.281 10.905,18.469 L7.703,21.675 C5.935,23.447 3.068,23.447 1.299,21.675 C-0.469,19.904 -0.469,17.033 1.299,15.262 L4.501,12.055 C5.688,10.866 7.369,10.479 8.882,10.886 L6.125,13.639 C6.118,13.647 6.109,13.651 6.102,13.658 Z" class="cls-1"/>
</svg>
