<svg xmlns="http://www.w3.org/2000/svg" xmlns:xlink="http://www.w3.org/1999/xlink" preserveAspectRatio="xMidYMid" width="24" height="24" viewBox="0 0 24 24">
  <defs>
    <style>
      .cls-1 {
        fill: #c7c9ce;
        fill-rule: evenodd;
      }
    </style>
  </defs>
  <path d="M22.435,13.565 L13.565,13.565 L13.565,22.435 C13.565,23.299 12.864,24.000 12.000,24.000 C11.136,24.000 10.435,23.299 10.435,22.435 L10.435,13.565 L1.565,13.565 C0.701,13.565 0.000,12.865 0.000,12.000 C0.000,11.136 0.701,10.435 1.565,10.435 L10.435,10.435 L10.435,1.565 C10.435,0.701 11.136,0.000 12.000,0.000 C12.864,0.000 13.565,0.701 13.565,1.565 L13.565,10.435 L22.435,10.435 C23.299,10.435 24.000,11.136 24.000,12.000 C24.000,12.865 23.299,13.565 22.435,13.565 Z" class="cls-1"/>
</svg>
