<svg xmlns="http://www.w3.org/2000/svg" xmlns:xlink="http://www.w3.org/1999/xlink" preserveAspectRatio="xMidYMid" width="32" height="32" viewBox="0 0 34.003 34.003">
  <defs>
    <style>
      .cls-1 {
        fill: #6d6e71;
        fill-rule: evenodd;
      }
    </style>
  </defs>
  <path d="M3.413,0.543 L0.831,3.143 C-0.595,4.579 0.091,6.293 0.831,8.343 C0.831,8.343 4.381,14.436 8.970,19.057 C13.848,23.971 19.547,27.193 19.547,27.193 C21.430,28.168 23.284,28.629 24.710,27.193 L27.292,24.593 C28.004,23.875 28.157,22.596 27.292,21.993 L22.128,18.093 C21.254,17.497 20.260,17.375 19.547,18.093 L19.547,18.093 L19.547,18.093 L18.020,19.631 C16.229,18.285 14.238,16.646 12.448,14.843 C10.865,13.249 9.458,11.519 8.286,9.934 L9.866,8.343 C10.579,7.625 10.458,6.623 9.866,5.743 L5.994,0.543 C5.281,-0.175 4.125,-0.175 3.413,0.543 M5.915,9.722 L7.989,7.634 C8.443,7.177 8.365,6.540 7.989,5.980 L5.525,2.670 C5.071,2.059 4.336,2.213 3.882,2.670 L2.239,4.325 C1.595,4.935 1.781,6.358 2.122,7.043 C3.646,9.968 7.032,14.473 9.866,17.443 C13.134,21.013 20.838,25.893 20.838,25.893 C21.432,26.208 23.083,26.232 23.537,25.775 L25.179,24.120 C25.519,23.548 25.671,22.884 25.179,22.466 L21.894,19.984 C21.337,19.605 20.705,19.527 20.251,19.984 L18.227,22.022 C17.750,21.684 10.146,16.651 5.915,9.722 Z" transform="translate(3.06 2.95)" class="cls-1"/>
</svg>
