<svg xmlns="http://www.w3.org/2000/svg" xmlns:xlink="http://www.w3.org/1999/xlink" preserveAspectRatio="xMidYMid" width="17.156" height="16.469" viewBox="0 0 17.156 16.469">
  <defs>
    <style>
      .cls-1 {
        fill: #6d6e71;
        fill-rule: evenodd;
      }
    </style>
  </defs>
  <path d="M16.079,14.273 L11.253,10.981 L6.964,10.981 L6.964,15.370 C6.964,15.976 6.484,16.467 5.891,16.467 L4.283,16.467 C3.690,16.467 3.210,15.976 3.210,15.370 L3.210,10.981 C3.210,10.945 3.217,10.912 3.221,10.877 C1.366,10.514 -0.007,9.189 -0.007,7.141 C-0.007,4.718 1.914,3.301 4.283,3.301 L11.253,3.301 L16.079,0.010 C16.672,0.010 17.152,0.501 17.152,1.107 L17.152,13.176 C17.152,13.782 16.672,14.273 16.079,14.273 ZM4.283,14.821 C4.283,15.124 4.523,15.370 4.819,15.370 L5.355,15.370 C5.651,15.370 5.891,15.124 5.891,14.821 L5.891,10.981 C5.623,10.981 5.115,10.981 4.819,10.981 L4.283,10.981 L4.283,14.821 ZM4.283,4.399 C3.182,4.363 1.065,4.718 1.065,7.141 C1.065,9.565 3.217,9.884 4.283,9.884 L8.572,9.884 L8.572,4.399 L4.283,4.399 ZM11.253,8.744 C11.253,8.712 11.253,8.679 11.253,8.653 C11.253,8.177 11.253,8.742 11.253,7.690 C11.253,7.539 11.253,7.366 11.253,7.141 C11.253,4.718 11.253,7.171 11.253,4.399 L9.645,4.399 L9.645,9.884 L11.253,9.884 C11.253,9.287 11.253,8.949 11.253,8.744 ZM16.079,11.804 L16.079,2.478 C16.079,2.024 16.079,1.776 16.079,1.107 L12.326,3.850 C12.326,4.351 12.326,4.493 12.326,4.947 L12.326,9.336 C12.326,9.790 12.326,9.549 12.326,10.433 L16.079,13.176 C16.079,12.559 16.079,12.259 16.079,11.804 Z" class="cls-1"/>
</svg>
