<svg xmlns="http://www.w3.org/2000/svg" xmlns:xlink="http://www.w3.org/1999/xlink" preserveAspectRatio="xMidYMid" width="24" height="24" viewBox="0 0 25 25">
  <defs>
    <style>
      .cls-1 {
        fill: #1faae2;
        fill-rule: evenodd;
      }
    </style>
  </defs>
  <path d="M16.811,0.001 C18.773,-0.034 19.818,0.692 20.816,1.615 C21.663,1.541 22.764,1.061 23.412,0.727 C23.622,0.610 23.832,0.494 24.042,0.377 C23.672,1.393 23.170,2.188 22.398,2.791 C22.227,2.925 22.057,3.106 21.842,3.191 C21.842,3.195 21.842,3.200 21.842,3.204 C22.942,3.192 23.849,2.689 24.710,2.416 C24.710,2.420 24.710,2.424 24.710,2.428 C24.258,3.158 23.645,3.899 22.992,4.430 C22.728,4.642 22.464,4.855 22.201,5.068 C22.215,6.249 22.183,7.377 21.966,8.370 C20.700,14.143 17.347,18.062 12.039,19.741 C10.133,20.344 7.052,20.592 4.868,20.041 C3.785,19.768 2.807,19.460 1.889,19.053 C1.379,18.827 0.907,18.582 0.455,18.302 C0.307,18.211 0.158,18.119 0.010,18.027 C0.503,18.042 1.079,18.180 1.630,18.090 C2.128,18.008 2.616,18.030 3.076,17.927 C4.222,17.672 5.240,17.334 6.117,16.814 C6.542,16.562 7.187,16.265 7.489,15.901 C6.920,15.911 6.404,15.777 5.981,15.626 C4.342,15.038 3.388,13.958 2.767,12.336 C3.264,12.391 4.695,12.522 5.029,12.236 C4.404,12.200 3.802,11.833 3.373,11.560 C2.054,10.723 0.979,9.318 0.987,7.157 C1.160,7.240 1.333,7.324 1.506,7.407 C1.837,7.548 2.174,7.624 2.569,7.707 C2.736,7.742 3.070,7.842 3.261,7.770 C3.253,7.770 3.245,7.770 3.237,7.770 C2.981,7.468 2.566,7.267 2.309,6.944 C1.463,5.877 0.671,4.234 1.172,2.278 C1.299,1.782 1.501,1.344 1.716,0.940 C1.724,0.944 1.733,0.948 1.741,0.952 C1.839,1.162 2.059,1.315 2.198,1.490 C2.630,2.033 3.163,2.522 3.706,2.954 C5.557,4.423 7.223,5.325 9.900,5.993 C10.579,6.163 11.364,6.292 12.175,6.294 C11.947,5.620 12.020,4.531 12.199,3.879 C12.650,2.241 13.630,1.060 15.067,0.427 C15.411,0.275 15.792,0.165 16.192,0.076 C16.398,0.051 16.605,0.026 16.811,0.001 Z" transform="translate(0.14 2.33)" class="cls-1"/>
</svg>
